<?xml version="1.0" encoding="utf-8"?>
<!-- Generator: Adobe Illustrator 16.0.0, SVG Export Plug-In . SVG Version: 6.00 Build 0)  -->
<!DOCTYPE svg PUBLIC "-//W3C//DTD SVG 1.1//EN" "http://www.w3.org/Graphics/SVG/1.1/DTD/svg11.dtd">
<svg version="1.1" id="Layer_1" xmlns="http://www.w3.org/2000/svg" xmlns:xlink="http://www.w3.org/1999/xlink" x="0px" y="0px"
	 width="624px" height="246px" viewBox="0 -1.232 624 246" enable-background="new 0 -1.232 624 246" xml:space="preserve">
<g>
	<path fill="#41759D" d="M623.644,179.212v-6.877h-28.749v-3.133h-17.737v3.133H549.51c-29.19-26.816-60.662-48.444-93.944-64.51
		c-0.877-0.424-1.758-0.835-2.634-1.251c0.072,1.134,0.13,2.269,0.175,3.408c0.386,0.185,0.771,0.359,1.154,0.545
		c1.139,0.548,2.271,1.109,3.403,1.671v16.318l-4.708-5.439c-0.065,1.032-0.143,2.067-0.233,3.103l2.188,2.531
		c-0.779-0.359-1.561-0.703-2.34-1.058c-0.104,1.044-0.224,2.089-0.357,3.134c1.819,0.832,3.636,1.66,5.45,2.525v39.023h-14.762
		v-25.177c-0.887,0.412-1.858,0.777-2.911,1.095v24.082h-8.138v-23.908c-1.023-0.242-2.004-0.586-2.907-1.006v24.914h-14.769
		v-56.512c4.929,1.621,9.849,3.36,14.769,5.222v9.551c0.041-0.014,0.081-0.036,0.127-0.051c0.85-0.263,1.818-0.453,2.78-0.519
		v-7.869c1.399,0.542,2.797,1.124,4.195,1.687c-0.084-1.075-0.185-2.194-0.302-3.345c-1.297-0.517-2.595-1.053-3.895-1.551v-16.874
		l1.109,1.281c-0.461-2.008-0.984-4.042-1.567-6.085c-19.339-7.577-39.021-13.23-58.945-16.938
		c-0.339,0.077-0.681,0.155-1.039,0.228c-0.031,0.957-0.089,1.814-0.161,2.604c0.084,0.015,0.168,0.027,0.25,0.043v17.65
		l-3.075-2.699c2.201,3.206,4.19,5.867,5.986,8.243v-1.02c2.714,0.532,5.426,1.1,8.136,1.705v11.655
		c0.588,1.271,1.116,2.597,1.569,4.046c0.522,1.685,0.965,3.216,1.342,4.616v-19.65c4.925,1.147,9.845,2.418,14.765,3.805v60.778
		h-14.765v-7.192c-0.751,0.128-1.747,0.13-2.911,0.024v7.168h-8.136v-8.869c-0.999-0.301-1.979-0.631-2.911-0.979v9.849h-14.763
		v-48.235c-1.162-0.999-2.167-1.903-2.911-2.635v50.869h-1.699c-0.189,0.146-24.113,0-24.113,0v-1.896
		c-1.308-2.004-0.86-4.473,0-7.736v-55.375c-1.797-3.527-2.169-6.713-2.124-7.13c-0.076,0.056-0.358,0.206-0.787,0.416v71.724
		h-8.136v-68.22c-0.917,0.361-1.884,0.733-2.909,1.116v67.104h-14.765V109.98c-0.96,0.257-1.933,0.506-2.911,0.747v61.609h-8.136
		v-59.889c-0.971,0.169-1.939,0.327-2.911,0.468v59.42h-14.766v-58.649c-0.98-0.059-1.95-0.143-2.908-0.256v58.905h-4.493
		c-0.005,0.021-0.007,0.041-0.013,0.061h-25.422c-0.008-0.021-0.015-0.04-0.022-0.061h-6.619v-48.801
		c-1.146,1.066-2.113,2.534-2.911,4.08v44.721h-15.055v-27.615c-0.968,1.063-1.943,2.219-2.91,3.471v24.145h-8.138v-1.567
		c-0.546,0.702-1.449,1.146-2.91,0.976v0.592h-14.765v-7.453c-1.032-0.826-2.014-1.719-2.911-2.682v10.135h-8.137v-39.563
		c2.711-1.27,5.424-2.5,8.137-3.695v23.147c0.852-1.166,1.839-2.382,2.911-3.619v-20.796c4.919-2.122,9.842-4.128,14.765-6.013
		v11.755c1.194-1.209,2.195-2.27,2.91-3.131v-9.719c0.757-0.282,1.513-0.539,2.269-0.815c0.092-1.043,0.187-2.149,0.281-3.299
		c-0.851,0.306-1.7,0.593-2.55,0.906V99.453l3.765,1.419c0.058-0.782,0.115-1.55,0.171-2.297l-1.17-0.441
		c0.411-0.152,0.824-0.294,1.236-0.444c0.087-1.16,0.169-2.263,0.246-3.288c-9.824,3.543-19.583,7.564-29.261,12.07
		c-1.549,0.721-3.094,1.455-4.635,2.2l-0.2-0.062l-0.059,0.188c-30.523,14.769-59.825,34.168-87.567,57.952h-0.002v0.002
		c-2.14,1.832-4.269,3.699-6.389,5.586H47.367v-3.135H29.629v3.135H0.355v6.875h29.273v30.061l-3.818,23.57h25.374l-2.629-15.555
		c15.629-13.914,31.322-26.611,47.064-38.076h437.772c14.387,10.619,28.712,22.285,42.964,35.006l-3.016,18.625h25.373l-3.818-22.59
		v-31.041H623.644 M414.177,94.226c4.944,1.646,9.866,3.414,14.769,5.308v17.132l-14.769-15.83V94.226z M414.177,104.076
		l11.83,12.682c-3.94-1.439-7.885-2.801-11.83-4.086V104.076z M382.546,104.012c-2.71-0.599-5.422-1.162-8.136-1.689V85.312
		l8.136,7.761V104.012z M382.546,90.02l-6.148-5.866c2.053,0.413,4.104,0.842,6.148,1.296V90.02z M184.404,106.439
		c4.903-2.174,9.824-4.228,14.765-6.154v16.716l-14.765-4.6V106.439L184.404,106.439z M184.404,114.715l13.708,4.271
		c-4.57,1.748-9.142,3.604-13.708,5.554V114.715L184.404,114.715z M178.332,109.19c1.053-0.49,2.108-0.969,3.163-1.448v3.752
		l-4.843-1.508C177.212,109.722,177.77,109.452,178.332,109.19z M173.356,111.558c0.118-0.056,0.235-0.115,0.354-0.172l7.783,2.425
		v11.985c-2.714,1.186-5.426,2.406-8.138,3.664V111.558L173.356,111.558z M47.367,179.212h23.281
		c-7.898,7.334-15.663,15.035-23.281,23.096V179.212z M47.966,213.796l-0.599-3.543v-4.162l0.293,0.273
		c0.625-0.668,1.253-1.324,1.88-1.988h9.3C55.212,207.452,51.586,210.591,47.966,213.796z M61.355,202.169h-9.724
		c3.215-3.363,6.458-6.656,9.724-9.89V202.169z M63.564,200.409v-9.631h11.874C71.476,193.911,67.519,197.122,63.564,200.409z
		 M76.33,188.568H65.143c3.284-3.183,6.593-6.304,9.926-9.356h1.262L76.33,188.568L76.33,188.568z M155.682,129.195l13.23,2.354
		c-4.413,2.111-8.822,4.318-13.23,6.617V129.195z M84.475,170.829l-0.047,1.508H82.74C83.317,171.831,83.897,171.331,84.475,170.829
		z M78.54,188.339v-9.127h12.012C86.543,182.175,82.54,185.218,78.54,188.339z M95.771,172.335H87.34l0.127-4.082
		c0.228-0.193,0.456-0.388,0.685-0.582l7.619-0.846L95.771,172.335L95.771,172.335z M95.771,164.604l-4.581,0.508
		c1.523-1.271,3.05-2.524,4.581-3.771V164.604z M98.682,172.335v-5.832l11.709-1.299c-3.446,2.316-6.89,4.697-10.331,7.131H98.682z
		 M113.004,172.335h-7.719c2.572-1.787,5.145-3.545,7.719-5.27V172.335z M113.004,163.464c-0.167,0.109-0.333,0.222-0.501,0.334
		l-0.114-1.039l-13.706,1.521v-5.285c4.732-3.777,9.506-7.426,14.321-10.949V163.464z M124.051,172.335h-8.137v-7.203
		c2.711-1.787,5.422-3.539,8.137-5.254V172.335z M124.051,156.333c-2.714,1.703-5.425,3.439-8.137,5.213v-15.227l8.137,0.361
		V156.333z M124.051,144.468l-5.735-0.256c1.905-1.348,3.816-2.674,5.735-3.983V144.468z M141.725,172.335h-14.765v-14.278
		c4.918-3.062,9.84-6.007,14.765-8.828V172.335z M126.961,154.521v-7.711l12.023,0.532
		C134.973,149.659,130.966,152.05,126.961,154.521z M141.725,145.255l-14.765-0.656v-5.967h-0.563
		c5.066-3.408,10.178-6.678,15.327-9.813V145.255z M152.772,172.335h-8.137v-24.76c2.71-1.527,5.423-3.018,8.137-4.473V172.335z
		 M152.772,139.702c-2.713,1.44-5.426,2.92-8.137,4.434V127.23l8.137,1.448V139.702z M152.772,126.435l-5.438-0.969
		c1.807-1.06,3.62-2.104,5.438-3.128V126.435z M170.447,172.335h-14.765v-30.773c4.919-2.59,9.84-5.064,14.765-7.416V172.335z
		 M170.447,129.581l-14.765-2.627v-6.236c4.889-2.701,9.811-5.279,14.765-7.733V129.581z M385.458,104.676v-8.828l12.568,11.99
		C393.838,106.698,389.647,105.645,385.458,104.676z M400.221,106.878l-14.765-14.083v-6.678c4.938,1.147,9.861,2.411,14.765,3.802
		V106.878z M411.269,172.335h-8.139v-59.946c2.714,0.792,5.426,1.621,8.139,2.487V172.335z M411.269,111.733
		c-2.713-0.858-5.425-1.68-8.139-2.464V92.231l8.139,8.724V111.733z M411.269,97.715l-5.852-6.271
		c1.953,0.59,3.902,1.198,5.852,1.827V97.715z M500.344,145.523l11.42,14.953c-3.805-2.496-7.609-4.921-11.42-7.271V145.523z
		 M471.623,129.183l10.005,13.085c-3.331-1.843-6.667-3.632-10.005-5.364V129.183z M468.711,172.335h-8.137V134.71
		c2.715,1.318,5.427,2.674,8.137,4.064V172.335z M468.711,135.413c-2.71-1.379-5.422-2.723-8.137-4.027v-16.644l8.137,10.638
		V135.413z M468.711,121.744l-4.915-6.428c1.645,0.856,3.283,1.726,4.915,2.609V121.744z M486.386,172.335h-14.765v-32.049
		c4.927,2.579,9.85,5.273,14.765,8.096V172.335z M486.386,144.854l-14.765-19.306v-6.037c4.966,2.744,9.888,5.615,14.765,8.615
		V144.854z M497.433,172.335h-8.136v-22.264c2.715,1.586,5.427,3.208,8.136,4.868V172.335z M497.433,151.429
		c-2.709-1.645-5.421-3.252-8.136-4.823v-15.547l8.136,10.653V151.429z M497.433,138.072l-4.395-5.757
		c1.467,0.945,2.934,1.904,4.395,2.876V138.072z M515.11,172.335h-14.766v-15.599c4.929,3.065,9.851,6.249,14.766,9.562V172.335z
		 M515.11,161.218l-14.766-19.334v-4.741c4.974,3.368,9.896,6.868,14.766,10.508V161.218z M518.018,172.335v-4.056
		c1.951,1.333,3.9,2.685,5.85,4.056H518.018z M526.158,170.286c-2.712-1.914-5.424-3.793-8.14-5.634v-13.59l8.14,10.778V170.286z
		 M526.158,158.173l-3.703-4.903c1.238,0.971,2.472,1.948,3.703,2.937V158.173z M529.066,172.335v-6.639l5.014,6.639H529.066z
		 M529.066,162.029v-3.458c5.404,4.418,10.737,9.006,15.999,13.766h-8.219L529.066,162.029z M549.404,187.653
		c-3.657-2.883-7.32-5.693-10.984-8.441h10.984V187.653z M550.508,188.529c-0.092-0.071-0.181-0.146-0.271-0.216h0.271V188.529z
		 M551.612,179.212h0.876c2.76,2.615,5.499,5.285,8.218,7.998h-9.094V179.212z M564.124,199.651
		c-4.162-3.499-8.328-6.91-12.5-10.232h11.287c0.406,0.408,0.81,0.824,1.213,1.236V199.651z M577.158,209.271l-0.233,1.442
		c-2.941-2.61-5.887-5.176-8.834-7.697h7.729c0.418,0.455,0.838,0.908,1.253,1.367l0.087-0.082L577.158,209.271L577.158,209.271z
		 M566.332,200.808v-7.893c2.508,2.59,4.996,5.221,7.466,7.893H566.332z M577.158,200.036c-3.566-3.89-7.177-7.693-10.826-11.414
		v-0.309h-0.301c-0.27-0.273-0.535-0.549-0.805-0.82v-0.283h-0.28c-2.687-2.713-5.394-5.377-8.119-7.998h20.331V200.036
		L577.158,200.036z"/>
	<g>
		<path fill="#41759D" d="M185.281,69.533c0.014,0,0.028-0.017,0.044-0.04C185.285,69.517,185.263,69.533,185.281,69.533"/>
		<path fill="#41759D" d="M356.737,87.899l11.688,10.259c-0.552-0.805-1.113-1.637-1.69-2.514c-0.245-4.95,3.606-2.75,4.517-12.481
			c-4.824-0.888-9.662-1.669-14.513-2.326L356.737,87.899"/>
		<path fill="#41759D" d="M387.01,141.325c-0.228,0.075,1.709-1.773-1.553-13.922v21.021
			C386.363,144.931,387.187,141.267,387.01,141.325"/>
		<path fill="#41759D" d="M325.101,85.272l-8.136-6.342v17.657c2.715,0.015,5.427,0.066,8.136,0.154V85.272"/>
		<path fill="#41759D" d="M382.546,165.169v-46.427c-1.954-4.22-4.666-7.746-8.136-12.339v57.065
			C377.25,164.325,380.216,164.958,382.546,165.169"/>
		<path fill="#41759D" d="M439.991,108.1v-4.061c-1.834-0.784-3.67-1.554-5.512-2.304L439.991,108.1"/>
		<path fill="#41759D" d="M386.788,164.511c0.208-0.314,2.712-2.023,0.773-5.329c-0.656-1.119-1.448-2.054-2.104-2.921v8.883
			C386.108,165.032,386.579,164.831,386.788,164.511"/>
		<path fill="#41759D" d="M325.101,78.208c-1.874-0.06-3.753-0.101-5.633-0.127l5.633,4.391V78.208"/>
		<path fill="#41759D" d="M213.127,103.619v10c4.85-1.617,9.701-3.123,14.555-4.51L213.127,103.619"/>
		<path fill="#41759D" d="M178.447,158.058c0.827,1.496,1.866,2.875,3.047,4.145v-9.978
			C179.912,154.394,178.792,156.395,178.447,158.058"/>
		<path fill="#41759D" d="M371.428,146.197c-2.556,3.609-6.583,11.229-6.629,11.492c-0.269,1.528,2.787,3.334,6.699,4.799v-16.422
			C371.474,146.107,371.456,146.157,371.428,146.197"/>
		<path fill="#41759D" d="M184.404,148.605v16.276c4.536,3.636,10.104,5.953,14.258,6.795c0.184,0.037,0.34,0.045,0.507,0.066
			v-38.191C195.15,137.612,188.99,143.312,184.404,148.605"/>
		<path fill="#41759D" d="M314.056,78.051c-4.927,0.019-9.849,0.155-14.765,0.41v6.803l14.765,10.097V78.051"/>
		<path fill="#41759D" d="M371.5,137.845v-33.017c-4.918-0.918-9.841-1.722-14.763-2.398v21.672
			c5.317,4.571,13.779,11.045,13.997,11.262C370.827,135.458,371.17,136.464,371.5,137.845"/>
		<path fill="#41759D" d="M317.794,75.054c18.367,0.148,36.609,1.918,54.655,5.278c14.669-3.325,13.27-10.542,20.229-11.603
			c0.83-0.128-0.802-4.902,2.142,1.338c3.74,7.937,12.82,13.434,15.786,13.38c2.509-0.046,0-12.042,3.747-13.648
			c0.247-0.105,4.281,6.69,4.281,6.958c0,0.267,2.142,0.535,4.551,0.535c3.621,6.338,6.271,13.203,8.21,19.978
			c7.229,2.832,14.407,5.936,21.535,9.303c-0.404-6.272-1.237-12.447-2.434-18.475c9.173,0.937,17.35-1.57,17.763-4.34
			c-5.822,0.668-11.048,0.238-15.466-0.669c7.607-1.044,13.476-4.158,13.476-6.6c-6.865,1.845-13.102,1.96-18.17,1.388
			c-7.301-26.998-21.272-50.355-34.281-65.614c-5.379-6.309-17.631-5.582-24.351-5.084c-7.227,0.535-13.45,0.908-19.803-1.338
			c-11.774-4.16-16.785-6.807-32.649-2.142c-14.521,4.271-29.868,4.926-44.957,3.747c-10.961-0.856-21.66-3.773-32.648-3.478
			c-26.978,0.723-59.915,50.695-60.745,53.521c-1.34,4.549-0.269,8.563-0.269,8.831s1.428,6.147-1.874,5.084
			c-2.054-0.661-0.359-4.852-3.211-5.619c-6.628-1.785-7.67,3.226-7.985,3.706c0.531-0.308,5.751-2.355,7.449,0.04
			c1.753,2.471-1.069,8.563,6.155,6.69c3.204-0.831,4.55-9.366,5.085-9.366c0.536,0,3.211,20.338,2.944,20.338
			c-0.071,0-0.309,2.92-0.632,7.207C242.787,81.252,280.169,74.753,317.794,75.054 M417.03,40.898c1.033,0,1.874,0.719,1.874,1.606
			c0,0.887-0.841,1.606-1.874,1.606c-1.035,0-1.872-0.719-1.872-1.606C415.158,41.618,415.995,40.898,417.03,40.898z
			 M338.329,20.091c1.943-3.09,24.797-11.171,34.52-9.982c8.75,4.753,17.258,35.176,17.258,35.413c0,0.238,0.73,11.409-2.431,16.637
			c0.972,1.426-5.835,3.565-13.854-1.664c-10.939-0.238-15.072-8.793-14.585-8.556C359.721,52.177,335.413,49.087,338.329,20.091z"
			/>
		<path fill="#41759D" d="M439.991,111.475l-7.027-8.118c1.399,6.105,2.263,11.975,2.784,17.144c1.413,0.563,2.829,1.107,4.243,1.69
			V111.475"/>
		<path fill="#41759D" d="M356.737,90.837v8.566c3.957,0.539,7.913,1.159,11.867,1.853L356.737,90.837"/>
		<path fill="#41759D" d="M442.902,111.461l10.054,11.615c0.28-4.398,0.318-8.767,0.149-13.094
			c-3.391-1.62-6.792-3.185-10.203-4.684V111.461"/>
		<path fill="#41759D" d="M353.826,88.284l-8.136-7.141v16.959c2.712,0.271,5.424,0.577,8.136,0.92V88.284"/>
		<path fill="#41759D" d="M424.256,141.519c-0.087,2.594,1.925,4.632,4.689,5.902v-16.823
			C425.106,131.906,424.392,137.427,424.256,141.519"/>
		<path fill="#41759D" d="M342.779,79.275c-4.911-0.439-9.833-0.758-14.767-0.962v6.427l14.767,11.509V79.275"/>
		<path fill="#41759D" d="M353.826,80.462c-2.134-0.268-4.269-0.514-6.403-0.738l6.403,5.62V80.462"/>
		<path fill="#41759D" d="M328.012,87.541v9.304c4.332,0.182,8.662,0.457,12.994,0.823L328.012,87.541"/>
		<path fill="#41759D" d="M442.902,123.403c3.226,1.361,6.447,2.786,9.669,4.249c0.051-0.489,0.104-0.981,0.15-1.474l-9.819-11.342
			V123.403"/>
		<path fill="#41759D" d="M442.902,147.159c5.396-2.516,7.807-6.744,8.648-11.796c0.254-1.526,0.468-3.053,0.662-4.577
			c-3.104-1.416-6.206-2.804-9.312-4.125L442.902,147.159"/>
		<path fill="#41759D" d="M228.181,90.465c-5.034,1.451-10.053,3.024-15.055,4.727v6.065l15.055,5.679V90.465"/>
		<path fill="#41759D" d="M436.049,123.847c0.233,2.961,0.354,5.617,0.403,7.861c-0.892-1.436-2.731-1.809-4.6-1.681v10.334
			c0.406-0.205,1.773-0.786,2.035-1.521c0.311-0.871-0.127-1.842,0.268-2.676c0.305-0.642,1.646-0.432,2.317-0.185
			c-0.032,2.122-0.127,3.347-0.175,3.396c-0.252,0.25-3.756,0.965-4.445,1.061v7.988c2.479,0.59,5.16,0.645,7.389,0.051
			c0.259-0.069,0.499-0.148,0.749-0.225v-22.819C438.677,124.886,437.363,124.376,436.049,123.847"/>
		<path fill="#41759D" d="M296.381,78.625c-2.054,0.125-4.106,0.272-6.156,0.439l6.156,4.21V78.625"/>
		<path fill="#41759D" d="M316.966,99.586v4.53c3.94-1.552,6.821-2.855,8.136-3.503v-0.87
			C322.392,99.653,319.677,99.603,316.966,99.586"/>
		<path fill="#41759D" d="M310.837,99.606c-3.847,0.056-7.695,0.19-11.544,0.394v9.979c5.479-1.473,10.548-3.174,14.765-4.748v-5.65
			C312.985,99.586,311.91,99.591,310.837,99.606"/>
		<path fill="#41759D" d="M262.085,165.776c-0.975-0.654-1.826-1.445-2.563-2.328v8.889h3.646
			C263.69,170.153,263.302,167.663,262.085,165.776"/>
		<path fill="#41759D" d="M238.937,109.194c-2.615,0.658-5.229,1.348-7.845,2.074v12.266c0.074-0.069,0.144-0.147,0.22-0.213
			c2.907,4.666,4.087,6.764,5.619,12.042c3.47,23.761-2.761,28.526,0.78,36.974h1.227L238.937,109.194"/>
		<path fill="#41759D" d="M267.661,81.731c-1.941,0.3-3.884,0.621-5.82,0.959l5.82,3.505V81.731"/>
		<path fill="#41759D" d="M256.467,120.377c0.05-0.053,0.096-0.1,0.146-0.153v-14.968c-4.923,0.953-9.843,2.029-14.768,3.219v63.859
			h14.768v-16.457C255.6,147.005,253.381,130.148,256.467,120.377"/>
		<path fill="#41759D" d="M296.381,85.95l-8.136-5.564v17.391c2.712-0.24,5.424-0.443,8.136-0.611V85.95"/>
		<path fill="#41759D" d="M270.568,102.879v10.807c4.763,0.284,9.775-0.047,14.766-0.771v-11.857
			C280.415,101.544,275.492,102.153,270.568,102.879"/>
		<path fill="#41759D" d="M270.568,90.526v9.321c4.272-0.624,8.544-1.159,12.816-1.604L270.568,90.526"/>
		<path fill="#41759D" d="M288.246,100.789v11.66c2.753-0.481,5.479-1.067,8.136-1.721V100.17
			C293.669,100.34,290.958,100.545,288.246,100.789"/>
		<path fill="#41759D" d="M285.335,79.5c-4.931,0.479-9.853,1.076-14.766,1.792v6.655l14.766,8.892V79.5"/>
		<path fill="#41759D" d="M259.522,104.711v12.522c3.329-3.328,4.773-4.307,6.043-4.095c0.689,0.114,1.391,0.208,2.096,0.292
			v-10.105C264.945,103.751,262.236,104.212,259.522,104.711"/>
		<path fill="#41759D" d="M311.953,96.599l-12.66-8.659v9.057c3.833-0.201,7.668-0.334,11.501-0.39
			C311.179,96.602,311.566,96.603,311.953,96.599"/>
		<path fill="#41759D" d="M210.216,102.521l-4.373-1.649c-0.379,5.087-0.808,10.809-1.215,15.716
			c1.861-0.672,3.724-1.351,5.587-1.989L210.216,102.521"/>
		<path fill="#41759D" d="M241.845,95.65v9.739c4.558-1.092,9.113-2.085,13.67-2.975L241.845,95.65"/>
		<path fill="#41759D" d="M345.69,101.118v71.219h6.437c2.486-1.904-2.729-9.27-3.379-8.621c-0.248,0.25-0.267-10.241-0.267-10.689
			c0.002,0.514,4.675-29.817,5.21-31.69c0.043,0.042,0.092,0.088,0.135,0.131v-19.42C351.114,101.7,348.402,101.392,345.69,101.118"
			/>
		<path fill="#41759D" d="M238.937,87.561c-1.846,0.464-3.69,0.947-5.533,1.445l5.533,2.739V87.561"/>
		<path fill="#41759D" d="M210.216,96.202c-1.38,0.484-2.758,0.985-4.135,1.487c-0.021,0.292-0.044,0.587-0.066,0.886l4.201,1.585
			V96.202"/>
		<path fill="#41759D" d="M238.937,94.21l-7.845-3.883v17.824c2.616-0.718,5.229-1.4,7.845-2.053V94.21"/>
		<path fill="#41759D" d="M256.613,83.645c-4.935,0.947-9.854,2.016-14.768,3.202v6.338l14.768,7.308V83.645"/>
		<path fill="#41759D" d="M213.127,116.785v27.937c6.144-6.766,11.843-9.771,12.031-9.583c0.184,0.185,1.134-3.857,3.023-7.524
			v-15.528C223.163,113.526,218.143,115.096,213.127,116.785"/>
		<path fill="#41759D" d="M342.779,100.837c-4.921-0.449-9.844-0.782-14.767-0.991v7.48c0.53,1.042,1.182,2.111,1.987,3.149
			c0.535,6.156,0.142,12.042,0.677,12.312c0.535,0.266,0.331,26.866-1.128,33.816c-0.481,2.31-1.064,4.317-1.536,6.099v7.736
			c0.446,0.682,1.103,1.311,2.013,1.896h12.754V100.837"/>
		<path fill="#41759D" d="M267.661,88.773l-8.139-4.9v17.787c2.712-0.494,5.424-0.952,8.139-1.374V88.773"/>
		<path fill="#41759D" d="M204.347,119.886c-0.446,5.055-0.842,8.613-1.078,8.535c0.001,0.401-0.441,1.095-1.19,2v40.348
			c1.201-1.539,0.729-4.243,0.842-4.02c0.168,0.338-0.077-1.516-0.229-4.312c-0.097-2.468,1.822-4.403,2.604-6.747
			c1.541-2.805,3.217-5.297,4.92-7.499v-30.416C208.26,118.454,206.303,119.171,204.347,119.886"/>
		<path fill="#41759D" d="M431.747,140.448c0.019,0,0.058-0.005,0.106-0.011v-0.075
			C431.753,140.413,431.696,140.448,431.747,140.448"/>
		<path fill="#41759D" d="M371.5,137.845v8.222C372.661,144.225,372.109,140.395,371.5,137.845"/>
		<path fill="#41759D" d="M256.613,120.225v35.653c0.041,0.36,0.084,0.732,0.12,1.066c0.27,2.424,1.261,4.672,2.789,6.503v-46.214
			C258.681,118.075,257.721,119.063,256.613,120.225"/>
		<path fill="#41759D" d="M384.277,152.659c-0.401,1.286,0.254,2.377,1.181,3.604v-7.838
			C385.052,149.985,384.632,151.513,384.277,152.659"/>
	</g>
	<g>
		<polyline fill="#41759D" points="130.492,205.466 126.891,199.587 126.651,199.587 127.372,205.466 127.372,232.169 
			121.731,232.169 121.731,189.567 125.093,189.567 146.511,216.807 149.931,222.386 150.231,222.386 149.511,216.807 
			149.511,190.169 155.151,190.169 155.151,232.767 151.792,232.767 130.492,205.466 		"/>
		<path fill="#41759D" d="M166.191,193.169c0-0.92,0.36-1.75,1.079-2.492c0.72-0.738,1.66-1.108,2.821-1.108
			c1.159,0,2.119,0.37,2.879,1.108c0.76,0.742,1.141,1.572,1.141,2.492c0,0.918-0.381,1.729-1.141,2.429s-1.72,1.051-2.879,1.051
			c-1.162,0-2.102-0.351-2.821-1.051C166.552,194.897,166.191,194.087,166.191,193.169 M167.331,200.669h5.52v31.5h-5.52V200.669z"
			/>
		<path fill="#41759D" d="M186.23,200.669h5.521v32.578c0,3.881-0.731,6.771-2.19,8.672c-1.461,1.898-3.81,2.849-7.049,2.849
			c-0.321,0-0.671,0-1.05,0c-0.381,0-0.791-0.04-1.23-0.119v-4.562c1.32,0.041,2.37-0.119,3.15-0.479
			c0.779-0.359,1.38-0.911,1.799-1.648c0.42-0.742,0.7-1.662,0.84-2.762c0.141-1.102,0.21-2.41,0.21-3.931V200.669 M184.969,193.169
			c0-0.92,0.36-1.75,1.081-2.492c0.719-0.738,1.659-1.108,2.819-1.108c1.159,0,2.119,0.37,2.88,1.108
			c0.759,0.742,1.14,1.572,1.14,2.492c0,0.918-0.381,1.729-1.14,2.429c-0.762,0.7-1.722,1.051-2.88,1.051
			c-1.161,0-2.101-0.351-2.819-1.051C185.331,194.897,184.969,194.087,184.969,193.169z"/>
		<path fill="#41759D" d="M223.911,232.169v-17.281c0-1.68-0.081-3.159-0.24-4.439c-0.16-1.279-0.48-2.35-0.96-3.21
			c-0.48-0.858-1.15-1.5-2.01-1.92c-0.86-0.42-1.971-0.631-3.33-0.631c-2.121,0-3.892,0.591-5.311,1.771
			c-1.42,1.18-2.43,2.689-3.03,4.529v21.182h-5.52v-31.5h3.78l1.08,4.199h0.6c1.28-1.441,2.75-2.65,4.41-3.631
			c1.659-0.98,3.77-1.471,6.33-1.471c2.16,0,3.968,0.461,5.43,1.381c1.459,0.92,2.569,2.46,3.33,4.619
			c1.2-1.84,2.72-3.301,4.56-4.381c1.839-1.079,3.9-1.619,6.181-1.619c1.921,0,3.55,0.222,4.89,0.66
			c1.339,0.439,2.431,1.201,3.271,2.281c0.84,1.078,1.459,2.539,1.859,4.379c0.398,1.84,0.601,4.16,0.601,6.959v18.121h-5.521
			v-18.121c0-1.6-0.091-2.979-0.271-4.14c-0.181-1.159-0.51-2.13-0.989-2.909c-0.48-0.781-1.152-1.359-2.011-1.74
			c-0.861-0.379-1.99-0.57-3.391-0.57c-2.279,0-4.08,0.602-5.399,1.801c-1.32,1.199-2.261,3-2.82,5.398v20.281h-5.52"/>
		<path fill="#41759D" d="M286.01,229.587c-1.402,1.041-3.142,1.871-5.22,2.49c-2.081,0.618-4.341,0.93-6.78,0.93
			c-2.64,0-4.932-0.391-6.871-1.17c-1.942-0.78-3.531-1.891-4.769-3.33c-1.241-1.439-2.16-3.18-2.761-5.221
			c-0.6-2.039-0.899-4.32-0.899-6.84c0-5.4,1.328-9.529,3.989-12.391c2.659-2.859,6.45-4.29,11.371-4.29
			c1.561,0,3.12,0.171,4.681,0.511c1.56,0.342,2.959,0.979,4.2,1.92c1.237,0.939,2.249,2.23,3.028,3.87
			c0.78,1.642,1.171,3.778,1.171,6.42c0,0.642-0.021,1.38-0.06,2.222c-0.041,0.838-0.12,1.66-0.24,2.459h-22.5
			c0.079,3.68,0.96,6.461,2.641,8.34c1.68,1.881,4.538,2.82,8.579,2.82c1.681,0,3.278-0.289,4.801-0.869
			c1.519-0.58,2.699-1.271,3.54-2.072L286.01,229.587 M281.871,213.208c0.079-3.201-0.571-5.459-1.951-6.781
			c-1.38-1.318-3.311-1.979-5.789-1.979c-2.801,0-5.021,0.66-6.66,1.979c-1.642,1.322-2.602,3.58-2.88,6.781H281.871z"/>
		<path fill="#41759D" d="M322.551,232.347c0,4.119-1.21,7.189-3.629,9.21c-2.422,2.021-5.972,3.03-10.651,3.03
			c-2.722,0-4.92-0.16-6.6-0.479s-3.12-0.761-4.32-1.319l1.315-4.98c0.518,0.24,1.116,0.488,1.795,0.75
			c0.677,0.26,1.396,0.488,2.153,0.689c0.758,0.199,1.523,0.36,2.302,0.479c0.78,0.12,1.526,0.181,2.244,0.181
			c1.956,0,3.571-0.17,4.845-0.51c1.277-0.341,2.295-0.87,3.051-1.591c0.758-0.72,1.276-1.64,1.556-2.761
			c0.278-1.119,0.42-2.459,0.42-4.02v-2.221h-0.657c-0.641,1.041-1.757,1.881-3.354,2.521s-3.53,0.959-5.806,0.959
			c-4.548,0-7.897-1.229-10.054-3.689c-2.156-2.461-3.23-6.43-3.23-11.91c0-5.398,1.399-9.559,4.2-12.479
			c2.798-2.92,6.96-4.381,12.48-4.381c2.64,0,4.907,0.16,6.811,0.479c1.898,0.32,3.607,0.74,5.129,1.261V232.347 M308.482,227.607
			c2.411,0,4.303-0.619,5.668-1.86c1.362-1.24,2.305-2.858,2.819-4.859v-15.479c-0.912-0.279-1.961-0.5-3.146-0.66
			c-1.188-0.16-2.534-0.24-4.039-0.24c-3.086,0-5.501,0.99-7.243,2.97c-1.743,1.981-2.611,5.011-2.611,9.091
			c0,3.52,0.642,6.239,1.931,8.159C303.146,226.647,305.352,227.607,308.482,227.607z"/>
		<path fill="#41759D" d="M358.85,229.587c-1.4,1.041-3.142,1.871-5.22,2.49c-2.081,0.618-4.342,0.93-6.78,0.93
			c-2.64,0-4.93-0.391-6.868-1.17c-1.941-0.78-3.532-1.891-4.771-3.33c-1.241-1.439-2.16-3.18-2.761-5.221
			c-0.601-2.039-0.899-4.32-0.899-6.84c0-5.4,1.329-9.529,3.991-12.391c2.659-2.859,6.448-4.29,11.368-4.29
			c1.561,0,3.12,0.171,4.681,0.511c1.561,0.342,2.959,0.979,4.2,1.92c1.238,0.939,2.251,2.23,3.031,3.87
			c0.778,1.642,1.168,3.778,1.168,6.42c0,0.642-0.021,1.38-0.061,2.222c-0.041,0.838-0.12,1.66-0.239,2.459h-22.5
			c0.078,3.68,0.96,6.461,2.641,8.34c1.68,1.881,4.538,2.82,8.579,2.82c1.681,0,3.279-0.289,4.801-0.869
			c1.52-0.58,2.699-1.271,3.54-2.072L358.85,229.587 M354.711,213.208c0.079-3.201-0.569-5.459-1.949-6.781
			c-1.38-1.318-3.312-1.979-5.791-1.979c-2.801,0-5.021,0.66-6.66,1.979c-1.642,1.322-2.602,3.58-2.88,6.781H354.711z"/>
		<path fill="#41759D" d="M391.491,232.169v-17.401c0-3.358-0.54-5.88-1.619-7.56c-1.08-1.681-3-2.521-5.761-2.521
			c-2.44,0-4.472,0.631-6.089,1.892c-1.619,1.26-2.753,2.869-3.392,4.83v20.76h-5.521v-31.5h3.84l1.08,4.199h0.54
			c1.159-1.439,2.672-2.65,4.528-3.63c1.862-0.979,4.091-1.471,6.691-1.471c1.838,0,3.458,0.21,4.859,0.631
			c1.398,0.42,2.567,1.16,3.512,2.22c0.938,1.061,1.647,2.48,2.129,4.262c0.479,1.779,0.72,4.029,0.72,6.75v18.539H391.491"/>
		<path fill="#41759D" d="M407.631,190.587c1.678-0.36,3.509-0.609,5.488-0.75c1.979-0.14,3.932-0.209,5.849-0.209
			c2.043,0,4.111,0.179,6.212,0.539c2.101,0.359,4.008,1.02,5.73,1.979c1.719,0.96,3.128,2.29,4.229,3.989
			c1.1,1.699,1.651,3.891,1.651,6.57c0,2.52-0.502,4.67-1.5,6.449c-1.001,1.78-2.333,3.23-3.991,4.35
			c-1.661,1.121-3.562,1.94-5.7,2.461c-2.141,0.521-4.349,0.781-6.632,0.781c-0.237,0-0.608-0.012-1.107-0.031
			c-0.502-0.02-1.021-0.041-1.561-0.061s-1.062-0.05-1.561-0.09c-0.501-0.04-0.868-0.079-1.108-0.12v15.722h-6L407.631,190.587
			 M419.151,194.907c-1.08,0-2.132,0.02-3.151,0.059c-1.021,0.041-1.813,0.14-2.368,0.297v15.91
			c0.199,0.078,0.527,0.127,0.988,0.146c0.459,0.021,0.938,0.049,1.439,0.09c0.499,0.039,0.979,0.059,1.439,0.059
			c0.459,0,0.81,0,1.052,0c1.439,0,2.858-0.107,4.258-0.325c1.401-0.218,2.671-0.64,3.812-1.271s2.06-1.52,2.761-2.662
			c0.698-1.145,1.048-2.623,1.048-4.438c0-1.577-0.338-2.877-1.018-3.902c-0.682-1.025-1.563-1.832-2.641-2.424
			c-1.079-0.593-2.292-0.996-3.631-1.214C421.8,195.016,420.468,194.907,419.151,194.907z"/>
		<polyline fill="#41759D" points="471.768,213.386 450.468,213.386 450.468,232.169 444.468,232.169 444.468,190.169 
			450.468,190.169 450.468,208.107 471.768,208.107 471.768,190.169 477.768,190.169 477.768,232.169 471.768,232.169 
			471.768,213.386 		"/>
		<path fill="#41759D" d="M488.449,190.587c1.68-0.36,3.511-0.609,5.491-0.75c1.979-0.14,3.929-0.209,5.849-0.209
			c2.04,0,4.111,0.179,6.211,0.539c2.101,0.359,4.009,1.02,5.729,1.979c1.722,0.96,3.13,2.29,4.23,3.989
			c1.1,1.699,1.649,3.891,1.649,6.57c0,2.52-0.503,4.67-1.5,6.449c-1.002,1.78-2.331,3.23-3.989,4.35
			c-1.66,1.121-3.563,1.94-5.699,2.461c-2.142,0.521-4.352,0.781-6.632,0.781c-0.237,0-0.609-0.012-1.108-0.031
			c-0.502-0.02-1.021-0.041-1.561-0.061s-1.062-0.05-1.561-0.09c-0.502-0.04-0.871-0.079-1.11-0.12v15.722h-6L488.449,190.587
			 M499.968,194.907c-1.079,0-2.128,0.02-3.147,0.059c-1.021,0.041-1.813,0.14-2.371,0.297v15.91
			c0.198,0.078,0.529,0.127,0.991,0.146c0.457,0.021,0.938,0.049,1.439,0.09c0.499,0.039,0.979,0.059,1.439,0.059
			c0.458,0,0.809,0,1.049,0c1.439,0,2.857-0.107,4.26-0.325c1.399-0.218,2.672-0.64,3.813-1.271c1.14-0.631,2.06-1.52,2.76-2.662
			c0.698-1.145,1.049-2.623,1.049-4.438c0-1.577-0.341-2.877-1.02-3.902c-0.681-1.025-1.562-1.832-2.639-2.424
			c-1.08-0.593-2.292-0.996-3.632-1.214C502.619,195.016,501.289,194.907,499.968,194.907z"/>
	</g>
</g>
</svg>
